# xmcd
#
# Track frame offsets:
#	150
#	15880
#	34311
#	53670
#	71749
#	85747
#	97756
#	113422
#	135647
#	154936
#	171286
#	185845
#
# Disc length: 2647 seconds
#
# Revision: 0
# Processed by: cddbd v1.5.2PL0 Copyright (c) Steve Scherf et al.
# Submitted via: EasyCDDAExtractor 10.0.1.1
#
DISCID=910a550c
DTITLE=Various Artist - Synkkien laulujen maa
DYEAR=2006
DGENRE=Blues
TTITLE0=Lauri T‰hk‰ - Peltoniemen hintriikan susumarssi
TTITLE1=Kari Tapio - Lumi teki enkelin eteiseen
TTITLE2=Katri Ylander - Joutsenlaulu
TTITLE3=Tuomari Nurmio - Yksin‰inen
TTITLE4=Siiri Nordin - Oi mutsi mutsi
TTITLE5=Kari Tapio and Ville Valo - T‰‰ll‰ pohjant‰hden alla
TTITLE6=Anna Eriksson - Murheellisten laulujen maa
TTITLE7=Paula Vesala and Olavi Uusivirta - Pime‰ tie, mukavaa matkaa
TTITLE8=Jonna Tervomaa - Tyhj‰‰
TTITLE9=Tuomari Nurmio - El‰m‰n valttikortit
TTITLE10=Paula Vesala and Mira Luoti - Maria magdalena
TTITLE11=Ville Valo and Tommi Viksten - Kunmin‰ kotoani l‰ksin
EXTD=
EXTT0=
EXTT1=
EXTT2=
EXTT3=
EXTT4=
EXTT5=
EXTT6=
EXTT7=
EXTT8=
EXTT9=
EXTT10=
EXTT11=
PLAYORDER=
